<svg width="92" height="34" viewBox="0 0 92 34" fill="none" xmlns="http://www.w3.org/2000/svg">
<path d="M13.5026 29.4178L4.06307 16.9996L13.5026 4.5815C14.1509 3.72842 14.1195 2.38398 13.4325 1.57913C12.746 0.77417 11.6627 0.813108 11.0145 1.66619L0.466507 15.542C-0.155502 16.3603 -0.155502 17.6396 0.466507 18.4581L11.015 32.3345C11.3514 32.777 11.8047 33 12.2591 33C12.6799 33 13.1024 32.8074 13.4325 32.4201C14.1202 31.6152 14.1509 30.2709 13.5026 29.4178Z" fill="#2376EB"/>
<path d="M41.9613 7.26C42.1106 7.54 42.1946 7.792 42.2133 8.016C42.2506 8.24 42.2693 8.56667 42.2693 8.996V24.536C42.2693 25.824 41.9146 26.58 41.2053 26.804C40.8506 26.916 40.4026 26.972 39.8613 26.972C39.32 26.972 38.8906 26.9253 38.5733 26.832C38.256 26.7387 38.0133 26.6267 37.8453 26.496C37.6773 26.3653 37.5466 26.1787 37.4533 25.936C37.36 25.6187 37.3133 25.1333 37.3133 24.48V15.1C36.8466 15.6787 36.1653 16.6027 35.2693 17.872C34.3733 19.1227 33.804 19.9067 33.5613 20.224C33.3186 20.5413 33.1506 20.7653 33.0573 20.896C32.964 21.008 32.7306 21.176 32.3573 21.4C32.0026 21.6053 31.6106 21.708 31.1813 21.708C30.7706 21.708 30.388 21.6147 30.0333 21.428C29.6973 21.2227 29.4546 21.0267 29.3053 20.84L29.0813 20.532C28.708 20.0653 27.9706 19.076 26.8693 17.564C25.768 16.0333 25.1706 15.212 25.0773 15.1V24.536C25.0773 24.9653 25.0586 25.292 25.0213 25.516C25.0026 25.7213 24.9186 25.9547 24.7693 26.216C24.4893 26.72 23.7613 26.972 22.5853 26.972C21.4466 26.972 20.7373 26.72 20.4573 26.216C20.308 25.9547 20.2146 25.712 20.1773 25.488C20.1586 25.264 20.1493 24.928 20.1493 24.48V8.94C20.1493 8.51067 20.1586 8.19333 20.1773 7.988C20.2146 7.764 20.308 7.512 20.4573 7.232C20.7373 6.74667 21.4653 6.504 22.6413 6.504C23.1453 6.504 23.5746 6.56933 23.9293 6.7C24.3026 6.812 24.5453 6.93333 24.6573 7.064L24.8253 7.232L31.1813 15.576C34.3546 11.376 36.4733 8.604 37.5373 7.26C37.8546 6.756 38.6013 6.504 39.7773 6.504C40.972 6.504 41.7 6.756 41.9613 7.26ZM57.1966 7.232C57.3459 6.952 57.5979 6.756 57.9526 6.644C58.3072 6.532 58.7552 6.476 59.2966 6.476C59.8379 6.476 60.2672 6.52267 60.5846 6.616C60.9019 6.70933 61.1446 6.82133 61.3126 6.952C61.4806 7.08267 61.6112 7.26933 61.7046 7.512C61.7979 7.82933 61.8446 8.31467 61.8446 8.968V24.508C61.8446 24.9373 61.8259 25.264 61.7886 25.488C61.7699 25.6933 61.6859 25.936 61.5366 26.216C61.2752 26.72 60.5472 26.972 59.3526 26.972C58.0459 26.972 57.2806 26.6267 57.0566 25.936C56.9446 25.6187 56.8886 25.1333 56.8886 24.48V18.796H49.4686V24.508C49.4686 24.9373 49.4499 25.264 49.4126 25.488C49.3939 25.6933 49.3099 25.936 49.1606 26.216C48.8992 26.72 48.1712 26.972 46.9766 26.972C45.6699 26.972 44.9046 26.6267 44.6806 25.936C44.5686 25.6187 44.5126 25.1333 44.5126 24.48V8.94C44.5126 8.51067 44.5219 8.19333 44.5406 7.988C44.5779 7.764 44.6712 7.512 44.8206 7.232C45.0819 6.728 45.8099 6.476 47.0046 6.476C48.3112 6.476 49.0859 6.82133 49.3286 7.512C49.4219 7.82933 49.4686 8.31467 49.4686 8.968V14.68H56.8886V8.94C56.8886 8.51067 56.8979 8.19333 56.9166 7.988C56.9539 7.764 57.0472 7.512 57.1966 7.232Z" fill="#2376EB"/>
<path d="M74.4591 1.01724C73.5762 0.892479 72.75 1.45796 72.6152 2.28162L67.8694 31.2626C67.7346 32.0867 68.3413 32.8571 69.2246 32.9829C69.3077 32.9944 69.3896 33 69.4711 33C70.2569 33 70.9461 32.4652 71.0685 31.7185L75.8143 2.73752C75.9491 1.91331 75.3424 1.14303 74.4591 1.01724Z" fill="#2376EB"/>
<path d="M78.2953 29.4178L87.7348 16.9996L78.2953 4.5815C77.647 3.72842 77.6784 2.38398 78.3654 1.57913C79.0519 0.774174 80.1352 0.813111 80.7834 1.66619L91.3314 15.542C91.9534 16.3603 91.9534 17.6396 91.3314 18.4581L80.7829 32.3345C80.4465 32.777 79.9932 33 79.5388 33C79.118 33 78.6955 32.8074 78.3654 32.4201C77.6778 31.6152 77.647 30.2709 78.2953 29.4178Z" fill="#2376EB"/>
</svg>
