<svg width="28" height="28" viewBox="0 0 28 28" fill="none" xmlns="http://www.w3.org/2000/svg">
<path d="M14 28C13.7327 28.0012 13.4714 27.9207 13.251 27.7694L0.576132 19.3775C0.426876 19.294 0.300291 19.1753 0.207407 19.0317V19.0317V18.974C0.0724343 18.7516 0.000720801 18.4965 0 18.2363L0 9.74062C0.00222969 9.48423 0.0739088 9.23325 0.207407 9.01439V8.94523C0.30451 8.80826 0.430352 8.69417 0.576132 8.61093L13.251 0.219003C13.4753 0.0777346 13.735 0.0027771 14 0.0027771C14.265 0.0027771 14.5247 0.0777346 14.749 0.219003L27.4239 8.61093C27.5696 8.69417 27.6955 8.80826 27.7926 8.94523C27.7975 8.96413 27.7975 8.98396 27.7926 9.00287C27.9261 9.22173 27.9978 9.47271 28 9.72909V18.2248C27.9993 18.485 27.9276 18.7401 27.7926 18.9625V19.0202C27.6968 19.1613 27.5708 19.2794 27.4239 19.366L14.749 27.7579C14.5299 27.9133 14.2685 27.9978 14 28V28ZM15.3251 18.9625V24.2075L24.2897 18.2478L20.3374 15.585L15.3251 18.9625ZM3.71029 18.2478L12.6749 24.2075V18.9625L7.66255 15.585L3.71029 18.2478ZM10.0362 13.9942L14 16.657L17.9638 13.9942L14 11.3199L10.0362 13.9942ZM22.7111 13.9942L25.3498 15.7694V12.219L22.7111 13.9942ZM2.65021 12.219V15.7694L5.28889 13.9942L2.65021 12.219ZM15.3251 9.02592L20.3374 12.3919L24.2897 9.74062L15.3251 3.78096V9.02592ZM3.71029 9.74062L7.66255 12.3919L12.6749 9.02592V3.78096L3.71029 9.74062Z" fill="#EEEEEE"/>
</svg>
