<svg width="30" height="17" viewBox="0 0 30 17" fill="none" xmlns="http://www.w3.org/2000/svg">
<style>
  path {
    fill: #fff;
  }
  @media (prefers-color-scheme: dark) {
    path {
      fill: #000;
    }
  }
</style>
<path d="M15.618 2.31C15.714 2.49 15.768 2.652 15.78 2.796C15.804 2.94 15.816 3.15 15.816 3.426V13.416C15.816 14.244 15.588 14.73 15.132 14.874C14.904 14.946 14.616 14.982 14.268 14.982C13.92 14.982 13.644 14.952 13.44 14.892C13.236 14.832 13.08 14.76 12.972 14.676C12.864 14.592 12.78 14.472 12.72 14.316C12.66 14.112 12.63 13.8 12.63 13.38V7.35C12.33 7.722 11.892 8.316 11.316 9.132C10.74 9.936 10.374 10.44 10.218 10.644C10.062 10.848 9.95398 10.992 9.89398 11.076C9.83398 11.148 9.68398 11.256 9.44398 11.4C9.21598 11.532 8.96398 11.598 8.68798 11.598C8.42398 11.598 8.17798 11.538 7.94998 11.418C7.73398 11.286 7.57798 11.16 7.48198 11.04L7.33798 10.842C7.09798 10.542 6.62398 9.906 5.91598 8.934C5.20798 7.95 4.82398 7.422 4.76398 7.35V13.416C4.76398 13.692 4.75198 13.902 4.72798 14.046C4.71598 14.178 4.66198 14.328 4.56598 14.496C4.38598 14.82 3.91798 14.982 3.16198 14.982C2.42998 14.982 1.97398 14.82 1.79398 14.496C1.69798 14.328 1.63798 14.172 1.61398 14.028C1.60198 13.884 1.59598 13.668 1.59598 13.38V3.39C1.59598 3.114 1.60198 2.91 1.61398 2.778C1.63798 2.634 1.69798 2.472 1.79398 2.292C1.97398 1.98 2.44198 1.824 3.19798 1.824C3.52198 1.824 3.79798 1.866 4.02598 1.95C4.26598 2.022 4.42198 2.1 4.49398 2.184L4.60198 2.292L8.68798 7.656C10.728 4.956 12.09 3.174 12.774 2.31C12.978 1.986 13.458 1.824 14.214 1.824C14.982 1.824 15.45 1.986 15.618 2.31ZM25.4121 2.292C25.5081 2.112 25.6701 1.986 25.8981 1.914C26.1261 1.842 26.4141 1.806 26.7621 1.806C27.1101 1.806 27.3861 1.836 27.5901 1.896C27.7941 1.956 27.9501 2.028 28.0581 2.112C28.1661 2.196 28.2501 2.316 28.3101 2.472C28.3701 2.676 28.4001 2.988 28.4001 3.408V13.398C28.4001 13.674 28.3881 13.884 28.3641 14.028C28.3521 14.16 28.2981 14.316 28.2021 14.496C28.0341 14.82 27.5661 14.982 26.7981 14.982C25.9581 14.982 25.4661 14.76 25.3221 14.316C25.2501 14.112 25.2141 13.8 25.2141 13.38V9.726H20.4441V13.398C20.4441 13.674 20.4321 13.884 20.4081 14.028C20.3961 14.16 20.3421 14.316 20.2461 14.496C20.0781 14.82 19.6101 14.982 18.8421 14.982C18.0021 14.982 17.5101 14.76 17.3661 14.316C17.2941 14.112 17.2581 13.8 17.2581 13.38V3.39C17.2581 3.114 17.2641 2.91 17.2761 2.778C17.3001 2.634 17.3601 2.472 17.4561 2.292C17.6241 1.968 18.0921 1.806 18.8601 1.806C19.7001 1.806 20.1981 2.028 20.3541 2.472C20.4141 2.676 20.4441 2.988 20.4441 3.408V7.08H25.2141V3.39C25.2141 3.114 25.2201 2.91 25.2321 2.778C25.2561 2.634 25.3161 2.472 25.4121 2.292Z" />
</svg>
